<svg width="188" height="132" viewBox="0 0 188 132" fill="none" xmlns="http://www.w3.org/2000/svg">
<path d="M171.81 0.399658H15.6191C6.99736 0.409811 0.0101524 7.39701 0 16.0188V115.981C0.0101524 124.603 6.99736 131.59 15.6191 131.6H171.81C172.687 131.604 173.562 131.527 174.425 131.372C181.941 130.114 187.444 123.602 187.429 115.981V16.0188C187.419 7.39662 180.432 0.409811 171.81 0.399658ZM15.6191 125.352C10.7635 125.352 6.71231 121.643 6.28512 116.806L68.5678 76.0836L131.906 125.352H15.6191ZM181.182 115.981C181.187 120.566 177.866 124.478 173.341 125.218C172.835 125.309 172.323 125.354 171.81 125.352H142.081L100.693 93.1427L137.704 63.5477L181.182 89.6347V115.981ZM181.182 82.3499L139.057 57.0751C137.937 56.4015 136.516 56.4964 135.496 57.3125L95.6139 89.2067L70.6389 69.7828C69.5866 68.9651 68.1317 68.9046 67.0153 69.6329L6.24764 109.365V16.0188C6.24764 10.843 10.4433 6.6473 15.6191 6.6473H171.81C176.986 6.6473 181.182 10.843 181.182 16.0188V82.3499Z" fill="#AEB0B0"/>
<path d="M93.7146 19.1427C83.363 19.1427 74.9717 27.5341 74.9717 37.8856C74.9818 48.2329 83.3673 56.6184 93.7146 56.6285C104.066 56.6285 112.458 48.2372 112.458 37.8856C112.458 27.5341 104.066 19.1427 93.7146 19.1427ZM93.7146 50.3809C86.8137 50.3809 81.2193 44.7865 81.2193 37.8856C81.2193 30.9847 86.8137 25.3903 93.7146 25.3903C100.616 25.3903 106.21 30.9847 106.21 37.8856C106.21 44.7865 100.616 50.3809 93.7146 50.3809Z" fill="#AEB0B0"/>
</svg>
