<svg width="18" height="18" viewBox="0 0 18 18" fill="none" xmlns="http://www.w3.org/2000/svg">
<g opacity="0.72">
<path d="M10.125 17.9998H7.87497C7.34997 17.9998 6.74998 17.5498 6.74998 16.6498V15.0748C6.74998 14.3248 6.37498 13.6498 5.77499 13.1249C4.425 12.0749 3.75 10.5749 3.75 8.92488C3.825 6.07489 6.14998 3.82491 8.92496 3.74991C10.35 3.74991 11.6999 4.27491 12.6749 5.2499C13.6499 6.22489 14.2499 7.57489 14.2499 8.99988C14.2499 10.5749 13.5749 12.0749 12.2999 13.0499C11.6249 13.5748 11.2499 14.3998 11.2499 15.1498V16.8748C11.2499 17.4748 10.725 17.9998 10.125 17.9998ZM8.99996 4.4999C6.59998 4.4999 4.57499 6.52489 4.49999 8.92488C4.49999 10.3499 5.09999 11.6999 6.22498 12.5249C7.04998 13.1999 7.49997 14.0998 7.49997 15.0748V16.6498C7.49997 16.7998 7.49997 17.2498 7.87497 17.2498H10.125C10.35 17.2498 10.5 17.0998 10.5 16.8748V15.1498C10.5 14.1748 11.0249 13.1249 11.8499 12.4499C12.8999 11.6249 13.4999 10.3499 13.4999 8.99988C13.4999 7.79988 13.0499 6.67489 12.1499 5.7749C11.3249 4.9499 10.2 4.4999 8.99996 4.4999Z" fill="#40AB5B"/>
<path d="M8.99996 4.4999C6.59998 4.4999 4.57499 6.52489 4.49999 8.92488C4.49999 10.3499 5.09999 11.6999 6.22498 12.5249C7.04998 13.1999 7.49997 14.0998 7.49997 15.0748V16.6498C7.49997 16.7998 7.49997 17.2498 7.87497 17.2498H10.125C10.35 17.2498 10.5 17.0998 10.5 16.8748V15.1498C10.5 14.1748 11.0249 13.1249 11.8499 12.4499C12.8999 11.6249 13.4999 10.3499 13.4999 8.99988C13.4999 7.79988 13.0499 6.67489 12.1499 5.7749C11.3249 4.9499 10.2 4.4999 8.99996 4.4999Z" fill="#40AB5B"/>
<path d="M10.875 15.7496H7.125C6.9 15.7496 6.75 15.5996 6.75 15.3746C6.75 15.1496 6.9 14.9996 7.125 14.9996H10.875C11.1 14.9996 11.25 15.1496 11.25 15.3746C11.25 15.5996 11.1 15.7496 10.875 15.7496Z" fill="#F8F8F8"/>
<path d="M9 2.24999C8.775 2.24999 8.625 2.09999 8.625 1.87499V0.374998C8.625 0.149999 8.775 0 9 0C9.225 0 9.375 0.149999 9.375 0.374998V1.87499C9.375 2.09999 9.225 2.24999 9 2.24999Z" fill="#40AB5B"/>
<path d="M14.0248 4.35007C13.9498 4.35007 13.7998 4.35007 13.7248 4.27507C13.5748 4.12507 13.5748 3.90008 13.7248 3.75008L14.7748 2.70008C14.9248 2.55009 15.1498 2.55009 15.2998 2.70008C15.4498 2.85008 15.4498 3.07508 15.2998 3.22508L14.2498 4.27507C14.2498 4.27507 14.0998 4.35007 14.0248 4.35007Z" fill="#40AB5B"/>
<path d="M17.625 9.37475H16.125C15.9 9.37475 15.75 9.22475 15.75 8.99975C15.75 8.77475 15.9 8.62476 16.125 8.62476H17.625C17.85 8.62476 18 8.77475 18 8.99975C18 9.22475 17.85 9.37475 17.625 9.37475Z" fill="#40AB5B"/>
<path d="M1.87499 9.37475H0.374997C0.149999 9.37475 0 9.22475 0 8.99975C0 8.77475 0.149999 8.62476 0.374997 8.62476H1.87499C2.09998 8.62476 2.24998 8.77475 2.24998 8.99975C2.24998 9.22475 2.09998 9.37475 1.87499 9.37475Z" fill="#40AB5B"/>
<path d="M3.97519 4.35037C3.90019 4.35037 3.75019 4.35037 3.67519 4.27537L2.62519 3.15037C2.4752 3.00038 2.4752 2.77538 2.62519 2.62538C2.77519 2.47538 3.00019 2.47538 3.15019 2.62538L4.20018 3.67537C4.35018 3.82537 4.35018 4.05037 4.20018 4.20037C4.12518 4.27537 4.05018 4.35037 3.97519 4.35037Z" fill="#40AB5B"/>
<path d="M12 9.37482C11.775 9.37482 11.625 9.22482 11.625 8.99982C11.625 7.57483 10.425 6.37484 9 6.37484C8.775 6.37484 8.625 6.22484 8.625 5.99984C8.625 5.77485 8.775 5.62485 9 5.62485C10.875 5.62485 12.375 7.12484 12.375 8.99982C12.375 9.22482 12.225 9.37482 12 9.37482Z" fill="#F8F8F8"/>
</g>
</svg>
