<svg width="18" height="24" viewBox="0 0 18 24" fill="none" xmlns="http://www.w3.org/2000/svg">
<path d="M17.3319 22.5415V5.91085L12.0221 0.601074H1.00185V22.5415H17.3319Z" fill="#3EA267"/>
<path d="M17.6195 5.68386L12.1365 0.200821C12.0064 0.070733 11.8287 0 11.6517 0H2.05619C0.922407 0 0 0.922407 0 2.05619V21.3387C0 22.4725 0.922407 23.3949 2.05619 23.3949H15.7641C16.8979 23.3949 17.8203 22.4725 17.8203 21.3387V6.16857C17.8203 5.9805 17.7407 5.80499 17.6195 5.68386ZM12.3371 2.34008L15.4802 5.48318H13.0225C12.6446 5.48318 12.3371 5.17571 12.3371 4.79778V2.34008ZM15.7641 22.0241H2.05619C1.67826 22.0241 1.37079 21.7166 1.37079 21.3387V2.05619C1.37079 1.67826 1.67826 1.37079 2.05619 1.37079H10.9663V4.79778C10.9663 5.93156 11.8888 6.85397 13.0225 6.85397H16.4495V21.3387C16.4495 21.7166 16.1421 22.0241 15.7641 22.0241Z" fill="white"/>
<path d="M13.0225 11.0574H6.16857C5.79004 11.0574 5.48317 11.3642 5.48317 11.7428C5.48317 12.1213 5.79004 12.4282 6.16857 12.4282H13.0225C13.4011 12.4282 13.7079 12.1213 13.7079 11.7428C13.7079 11.3642 13.4011 11.0574 13.0225 11.0574Z" fill="white"/>
<path d="M13.0225 13.7993H6.16857C5.79004 13.7993 5.48317 14.1062 5.48317 14.4847C5.48317 14.8632 5.79004 15.1701 6.16857 15.1701H13.0225C13.4011 15.1701 13.7079 14.8632 13.7079 14.4847C13.7079 14.1062 13.4011 13.7993 13.0225 13.7993Z" fill="white"/>
<path d="M13.0225 16.5405H6.16857C5.79004 16.5405 5.48317 16.8474 5.48317 17.2259C5.48317 17.6044 5.79004 17.9113 6.16857 17.9113H13.0225C13.4011 17.9113 13.7079 17.6044 13.7079 17.2259C13.7079 16.8474 13.4011 16.5405 13.0225 16.5405Z" fill="white"/>
<path d="M3.42697 12.4282C3.80551 12.4282 4.11237 12.1213 4.11237 11.7428C4.11237 11.3642 3.80551 11.0574 3.42697 11.0574C3.04844 11.0574 2.74158 11.3642 2.74158 11.7428C2.74158 12.1213 3.04844 12.4282 3.42697 12.4282Z" fill="white"/>
<path d="M3.42697 15.1701C3.80551 15.1701 4.11237 14.8632 4.11237 14.4847C4.11237 14.1062 3.80551 13.7993 3.42697 13.7993C3.04844 13.7993 2.74158 14.1062 2.74158 14.4847C2.74158 14.8632 3.04844 15.1701 3.42697 15.1701Z" fill="white"/>
<path d="M3.42697 17.9113C3.80551 17.9113 4.11237 17.6045 4.11237 17.2259C4.11237 16.8474 3.80551 16.5405 3.42697 16.5405C3.04844 16.5405 2.74158 16.8474 2.74158 17.2259C2.74158 17.6045 3.04844 17.9113 3.42697 17.9113Z" fill="white"/>
</svg>
