<svg width="191" height="117" viewBox="0 0 191 117" fill="none" xmlns="http://www.w3.org/2000/svg">
<path d="M188.131 101.911V35.5767L166.952 14.3977H122.996V101.911H188.131Z" fill="white"/>
<path d="M189.278 34.671L167.408 12.801C166.89 12.2821 166.181 12 165.475 12H127.201C122.679 12 119 15.6792 119 20.2015V97.113C119 101.635 122.679 105.314 127.201 105.314H181.878C186.4 105.314 190.079 101.635 190.079 97.113V36.6044C190.079 35.8542 189.762 35.1542 189.278 34.671ZM168.209 21.3338L180.746 33.8706H170.943C169.435 33.8706 168.209 32.6442 168.209 31.1368V21.3338ZM181.878 99.8468H127.201C125.694 99.8468 124.468 98.6205 124.468 97.113V20.2015C124.468 18.694 125.694 17.4676 127.201 17.4676H162.741V31.1368C162.741 35.659 166.42 39.3382 170.943 39.3382H184.612V97.113C184.612 98.6205 183.385 99.8468 181.878 99.8468Z" fill="#CDCDCD"/>
<path d="M170.943 56.1042H143.604C142.095 56.1042 140.871 57.3283 140.871 58.8381C140.871 60.3479 142.095 61.5719 143.604 61.5719H170.943C172.452 61.5719 173.676 60.3479 173.676 58.8381C173.676 57.3283 172.452 56.1042 170.943 56.1042Z" fill="#CDCDCD"/>
<path d="M170.943 67.0405H143.604C142.095 67.0405 140.871 68.2646 140.871 69.7743C140.871 71.2841 142.095 72.5082 143.604 72.5082H170.943C172.452 72.5082 173.676 71.2841 173.676 69.7743C173.676 68.2646 172.452 67.0405 170.943 67.0405Z" fill="#CDCDCD"/>
<path d="M170.943 77.9758H143.604C142.095 77.9758 140.871 79.1999 140.871 80.7097C140.871 82.2195 142.095 83.4435 143.604 83.4435H170.943C172.452 83.4435 173.676 82.2195 173.676 80.7097C173.676 79.1999 172.452 77.9758 170.943 77.9758Z" fill="#CDCDCD"/>
<path d="M132.669 61.5719C134.179 61.5719 135.403 60.3479 135.403 58.8381C135.403 57.3282 134.179 56.1042 132.669 56.1042C131.159 56.1042 129.935 57.3282 129.935 58.8381C129.935 60.3479 131.159 61.5719 132.669 61.5719Z" fill="#CDCDCD"/>
<path d="M132.669 72.5082C134.179 72.5082 135.403 71.2842 135.403 69.7743C135.403 68.2645 134.179 67.0405 132.669 67.0405C131.159 67.0405 129.935 68.2645 129.935 69.7743C129.935 71.2842 131.159 72.5082 132.669 72.5082Z" fill="#CDCDCD"/>
<path d="M132.669 83.4435C134.179 83.4435 135.403 82.2195 135.403 80.7097C135.403 79.1998 134.179 77.9758 132.669 77.9758C131.159 77.9758 129.935 79.1998 129.935 80.7097C129.935 82.2195 131.159 83.4435 132.669 83.4435Z" fill="#CDCDCD"/>
<path d="M1.94807 101.911V35.5767L23.127 14.3977H67.0834V101.911H1.94807Z" fill="white"/>
<path d="M0.801208 34.671L22.6711 12.801C23.1898 12.2821 23.8986 12 24.6044 12H62.8779C67.4002 12 71.0794 15.6792 71.0794 20.2015V97.113C71.0794 101.635 67.4002 105.314 62.8779 105.314H8.20149C3.6792 105.314 1.52588e-05 101.635 1.52588e-05 97.113V36.6044C1.52588e-05 35.8542 0.317688 35.1542 0.801208 34.671ZM21.8706 21.3338L9.33384 33.8706H19.1368C20.6442 33.8706 21.8706 32.6442 21.8706 31.1368V21.3338ZM8.20149 99.8468H62.8779C64.3854 99.8468 65.6118 98.6205 65.6118 97.113V20.2015C65.6118 18.694 64.3854 17.4676 62.8779 17.4676H27.3382V31.1368C27.3382 35.659 23.6591 39.3382 19.1368 39.3382H5.46766V97.113C5.46766 98.6205 6.69406 99.8468 8.20149 99.8468Z" fill="#CDCDCD"/>
<path d="M19.1368 56.1042H46.475C47.9848 56.1042 49.2088 57.3283 49.2088 58.8381C49.2088 60.3479 47.9848 61.5719 46.475 61.5719H19.1368C17.627 61.5719 16.4029 60.3479 16.4029 58.8381C16.4029 57.3283 17.627 56.1042 19.1368 56.1042Z" fill="#CDCDCD"/>
<path d="M19.1368 67.0405H46.475C47.9848 67.0405 49.2088 68.2646 49.2088 69.7743C49.2088 71.2841 47.9848 72.5082 46.475 72.5082H19.1368C17.627 72.5082 16.4029 71.2841 16.4029 69.7743C16.4029 68.2646 17.627 67.0405 19.1368 67.0405Z" fill="#CDCDCD"/>
<path d="M19.1368 77.9758H46.475C47.9848 77.9758 49.2088 79.1999 49.2088 80.7097C49.2088 82.2195 47.9848 83.4435 46.475 83.4435H19.1368C17.627 83.4435 16.4029 82.2195 16.4029 80.7097C16.4029 79.1999 17.627 77.9758 19.1368 77.9758Z" fill="#CDCDCD"/>
<path d="M57.4103 61.5719C55.9004 61.5719 54.6765 60.3479 54.6765 58.8381C54.6765 57.3282 55.9004 56.1042 57.4103 56.1042C58.9201 56.1042 60.1441 57.3282 60.1441 58.8381C60.1441 60.3479 58.9201 61.5719 57.4103 61.5719Z" fill="#CDCDCD"/>
<path d="M57.4103 72.5082C55.9004 72.5082 54.6765 71.2842 54.6765 69.7743C54.6765 68.2645 55.9004 67.0405 57.4103 67.0405C58.9201 67.0405 60.1441 68.2645 60.1441 69.7743C60.1441 71.2842 58.9201 72.5082 57.4103 72.5082Z" fill="#CDCDCD"/>
<path d="M57.4103 83.4435C55.9004 83.4435 54.6765 82.2195 54.6765 80.7097C54.6765 79.1998 55.9004 77.9758 57.4103 77.9758C58.9201 77.9758 60.1441 79.1998 60.1441 80.7097C60.1441 82.2195 58.9201 83.4435 57.4103 83.4435Z" fill="#CDCDCD"/>
<path d="M137.5 112.5V29.5L111 3H56V112.5H137.5Z" fill="white"/>
<path d="M138.935 28.367L111.571 1.00226C110.922 0.353013 110.035 0 109.151 0H61.262C55.6035 0 51 4.60354 51 10.262V106.497C51 112.155 55.6035 116.759 61.262 116.759H129.675C135.334 116.759 139.937 112.155 139.937 106.497V30.7861C139.937 29.8474 139.54 28.9715 138.935 28.367ZM112.572 11.6789L128.259 27.3654H115.993C114.107 27.3654 112.572 25.8309 112.572 23.9447V11.6789ZM129.675 109.918H61.262C59.3758 109.918 57.8413 108.383 57.8413 106.497V10.262C57.8413 8.37586 59.3758 6.84135 61.262 6.84135H105.731V23.9447C105.731 29.6032 110.334 34.2067 115.993 34.2067H133.096V106.497C133.096 108.383 131.562 109.918 129.675 109.918Z" fill="#CDCDCD"/>
<path d="M115.993 55.1851H81.786C79.8969 55.1851 78.3654 56.7166 78.3654 58.6057C78.3654 60.4949 79.8969 62.0264 81.786 62.0264H115.993C117.882 62.0264 119.413 60.4949 119.413 58.6057C119.413 56.7166 117.882 55.1851 115.993 55.1851Z" fill="#CDCDCD"/>
<path d="M115.993 68.8691H81.786C79.8969 68.8691 78.3654 70.4007 78.3654 72.2898C78.3654 74.1789 79.8969 75.7105 81.786 75.7105H115.993C117.882 75.7105 119.413 74.1789 119.413 72.2898C119.413 70.4007 117.882 68.8691 115.993 68.8691Z" fill="#CDCDCD"/>
<path d="M115.993 82.5518H81.786C79.8969 82.5518 78.3654 84.0833 78.3654 85.9724C78.3654 87.8616 79.8969 89.3931 81.786 89.3931H115.993C117.882 89.3931 119.413 87.8616 119.413 85.9724C119.413 84.0833 117.882 82.5518 115.993 82.5518Z" fill="#CDCDCD"/>
<path d="M68.1034 62.0264C69.9925 62.0264 71.524 60.4949 71.524 58.6057C71.524 56.7165 69.9925 55.1851 68.1034 55.1851C66.2142 55.1851 64.6827 56.7165 64.6827 58.6057C64.6827 60.4949 66.2142 62.0264 68.1034 62.0264Z" fill="#CDCDCD"/>
<path d="M68.1034 75.7105C69.9925 75.7105 71.524 74.179 71.524 72.2898C71.524 70.4006 69.9925 68.8691 68.1034 68.8691C66.2142 68.8691 64.6827 70.4006 64.6827 72.2898C64.6827 74.179 66.2142 75.7105 68.1034 75.7105Z" fill="#CDCDCD"/>
<path d="M68.1034 89.3931C69.9925 89.3931 71.524 87.8616 71.524 85.9724C71.524 84.0832 69.9925 82.5518 68.1034 82.5518C66.2142 82.5518 64.6827 84.0832 64.6827 85.9724C64.6827 87.8616 66.2142 89.3931 68.1034 89.3931Z" fill="#CDCDCD"/>
</svg>
