<svg width="116" height="114" viewBox="0 0 116 114" fill="none" xmlns="http://www.w3.org/2000/svg">
<path d="M58 113.187C25.9675 113.187 0 87.8489 0 56.5933C0 25.3377 25.9675 0 58 0C90.0325 0 116 25.3377 116 56.5933C116 87.8489 90.0325 113.187 58 113.187Z" fill="#EFECE8"/>
<path d="M44.7241 60.4846C38.2621 56.2869 34.0001 49.123 34.0001 40.9813C34.0001 28.0488 44.7461 17.5634 58.0001 17.5634C71.2541 17.5634 82.0001 28.0488 82.0001 40.9813C82.0001 49.123 77.7381 56.2869 71.2761 60.4846C71.2761 60.4846 71.2741 60.4865 71.2721 60.4865C71.2741 60.4865 71.2741 60.4846 71.2741 60.4846C86.7421 65.0335 98.7861 77.283 102.664 92.694L102.662 92.6959C102.03 93.4394 101.374 94.1654 100.704 94.8777C100.542 95.0514 100.372 95.2172 100.206 95.387C99.6901 95.9217 99.1681 96.4486 98.6321 96.9638C98.4101 97.1765 98.1841 97.3814 97.9581 97.5902C97.4621 98.0508 96.9601 98.5055 96.4481 98.9485C96.1941 99.1671 95.9361 99.3837 95.6801 99.5983C95.1781 100.018 94.6701 100.43 94.1521 100.832C93.8801 101.044 93.6061 101.253 93.3321 101.462C92.8081 101.856 92.2761 102.239 91.7381 102.613C91.4601 102.807 91.1861 103.004 90.9041 103.193C90.3361 103.575 89.7581 103.942 89.1761 104.305C88.9141 104.467 88.6581 104.635 88.3941 104.795C87.7221 105.199 87.0381 105.586 86.3481 105.964C86.1661 106.064 85.9881 106.171 85.8041 106.269C84.9121 106.745 84.0061 107.201 83.0861 107.633C83.0641 107.642 83.0401 107.652 83.0181 107.662C82.1401 108.072 81.2481 108.46 80.3461 108.827C80.0661 108.942 79.7801 109.044 79.4981 109.153C78.8461 109.407 78.1941 109.656 77.5301 109.887C77.1781 110.01 76.8221 110.121 76.4681 110.238C75.8641 110.437 75.2561 110.63 74.6441 110.808C74.2561 110.921 73.8661 111.026 73.4741 111.132C72.8821 111.292 72.2861 111.444 71.6841 111.586C71.2781 111.682 70.8701 111.774 70.4601 111.862C69.8581 111.99 69.2541 112.107 68.6461 112.217C68.2341 112.291 67.8241 112.367 67.4081 112.431C66.7801 112.531 66.1481 112.615 65.5141 112.695C65.1141 112.746 64.7161 112.802 64.3141 112.843C63.6141 112.917 62.9081 112.97 62.2021 113.019C61.8601 113.042 61.5221 113.077 61.1801 113.095C60.1261 113.153 59.0681 113.187 58.0001 113.187C56.9321 113.187 55.8741 113.153 54.8201 113.099C54.4781 113.081 54.1381 113.046 53.7981 113.023C53.0901 112.974 52.3841 112.921 51.6861 112.847C51.2841 112.804 50.8861 112.749 50.4861 112.699C49.8521 112.619 49.2201 112.535 48.5921 112.435C48.1781 112.369 47.7661 112.295 47.3541 112.221C46.7461 112.111 46.1401 111.994 45.5401 111.865C45.1301 111.778 44.7221 111.686 44.3161 111.59C43.7161 111.448 43.1201 111.296 42.5261 111.136C42.1361 111.03 41.7441 110.925 41.3561 110.812C40.7421 110.632 40.1361 110.439 39.5321 110.242C39.1781 110.125 38.8201 110.013 38.4701 109.891C37.8081 109.658 37.1541 109.41 36.5021 109.157C36.2201 109.047 35.9341 108.944 35.6541 108.831C34.7561 108.464 33.8681 108.08 32.9941 107.67C32.9681 107.658 32.9401 107.646 32.9141 107.635C31.9941 107.203 31.0881 106.747 30.1961 106.27C30.0121 106.173 29.8341 106.066 29.6521 105.966C28.9621 105.587 28.2781 105.201 27.6061 104.797C27.3421 104.639 27.0841 104.471 26.8241 104.307C26.2421 103.944 25.6641 103.575 25.0961 103.195C24.8161 103.006 24.5401 102.81 24.2621 102.615C23.7241 102.239 23.1921 101.856 22.6681 101.464C22.3921 101.257 22.1201 101.046 21.8481 100.834C21.3321 100.432 20.8221 100.02 20.3201 99.6003C20.0621 99.3856 19.8041 99.169 19.5521 98.9504C19.0401 98.5075 18.5381 98.0527 18.0421 97.5922C17.8181 97.3834 17.5901 97.1765 17.3681 96.9658C16.8321 96.4506 16.3081 95.9237 15.7941 95.389C15.6301 95.2172 15.4601 95.0514 15.2961 94.8796C14.6261 94.1673 13.9701 93.4414 13.3381 92.6979L13.3361 92.6959C17.2121 77.283 29.2561 65.0335 44.7241 60.4846Z" fill="#C6C3BD"/>
</svg>
