<svg width="42" height="42" viewBox="0 0 42 42" fill="none" xmlns="http://www.w3.org/2000/svg">
<path d="M41.9948 20.7828C41.9888 20.1686 41.9577 19.5588 41.8998 18.9585C41.7055 16.9572 41.2269 15.0388 40.51 13.2405C40.4565 13.1066 40.4072 12.971 40.3502 12.8388C39.3949 10.5818 38.0535 8.52697 36.4115 6.75369C36.3035 6.63794 36.1938 6.52393 36.0842 6.41164C35.7741 6.08946 35.4553 5.77505 35.1254 5.4736C31.3922 2.07474 26.4343 0 20.9996 0C15.5191 0 10.5257 2.11188 6.78219 5.56257C5.9098 6.36672 5.10824 7.2443 4.38096 8.18406C1.63768 11.7324 0 16.1772 0 20.9996C0 32.5799 9.42095 42 21.0004 42C29.1456 42 36.2172 37.3357 39.6981 30.5397C40.4426 29.0869 41.0222 27.5382 41.4126 25.9152C41.512 25.5032 41.5975 25.0894 41.6718 24.6705C41.8834 23.4777 41.9991 22.2511 41.9991 20.9996C42 20.927 41.9957 20.8553 41.9948 20.7828ZM38.0423 12.3897L38.1641 12.2532C38.3239 12.5633 38.4733 12.8786 38.6158 13.1981L38.4171 13.1904L38.0423 13.2422V12.3897ZM35.0079 8.72563L35.0114 7.7876C35.3413 8.13742 35.6592 8.4976 35.9632 8.87075L35.5849 9.43391L34.2625 9.42182L34.1796 9.14628L35.0079 8.72563ZM9.67576 6.39436V6.35895H10.0964L10.1327 6.2147H10.8211V6.51529L10.6233 6.7796H9.6749L9.67576 6.39436ZM10.3478 7.33154C10.3478 7.33154 10.7684 7.25985 10.8047 7.25985C10.841 7.25985 10.8047 7.67963 10.8047 7.67963L9.85629 7.73923L9.67576 7.52329L10.3478 7.33154ZM39.3802 15.6676H37.8436L36.9073 14.9706L35.9218 15.0664V15.6676H35.61L35.2731 15.4275L33.5663 14.9948V13.8892L31.4035 14.0576L30.7332 14.4178H29.8746L29.454 14.3754L28.4114 14.9542V16.0434L26.2806 17.5808L26.4576 18.2373H26.8895L26.7763 18.8626L26.4723 18.9741L26.4559 20.6083L28.2974 22.7055H29.099L29.1473 22.5776H30.5881L31.0036 22.1933H31.8207L32.269 22.6424L33.4868 22.7685L33.3253 24.3881L34.6771 26.7746L33.9654 28.135L34.0137 28.7759L34.5743 29.3348V30.8757L35.3102 31.8656V33.1457H35.946C32.408 37.4895 27.0234 40.2716 20.9987 40.2716C10.3728 40.2725 1.72751 31.6263 1.72751 20.9996C1.72751 18.3245 2.27685 15.7747 3.26585 13.4573V12.8561L3.95513 12.0191C4.19439 11.5674 4.45092 11.1269 4.72473 10.6976L4.75583 11.0474L3.95599 12.0191C3.70809 12.4873 3.47661 12.9658 3.26671 13.4573V14.5542L4.06741 14.9395V16.464L4.83529 17.7743L5.45978 17.8702L5.54011 17.421L4.80333 16.2843L4.65908 15.1796H5.09096L5.27321 16.3163L6.33822 17.8702L6.06355 18.372L6.74073 19.4077L8.42246 19.824V19.5519L9.09532 19.6478L9.0314 20.128L9.56002 20.2248L10.3763 20.4476L11.5294 21.7614L13.0021 21.8728L13.1463 23.0743L12.1383 23.7791L12.0908 24.8519L11.9466 25.5084L13.4046 27.3335L13.516 27.9588C13.516 27.9588 14.0446 28.1022 14.1094 28.1022C14.1733 28.1022 15.2945 28.9513 15.2945 28.9513V32.25L15.6944 32.3622L15.4223 33.8842L16.0952 34.7816L15.9708 36.2897L16.8596 37.8523L18.0006 38.849L19.1477 38.8698L19.26 38.5009L18.4169 37.7909L18.4653 37.4385L18.6165 37.0066L18.6484 36.5661L18.0784 36.5489L17.7907 36.1878L18.2641 35.7326L18.328 35.3888L17.7994 35.2377L17.8305 34.9181L18.5836 34.8041L19.729 34.2539L20.1134 33.549L21.3148 32.0116L21.0419 30.8092L21.4107 30.1692L22.5155 30.2029L23.2591 29.6138L23.4993 27.2937L24.3242 26.246L24.4684 25.5731L23.7161 25.3322L23.2194 24.5176L21.5221 24.5004L20.1764 23.9873L20.1125 23.0277L19.6633 22.2425L18.4463 22.2244L17.7432 21.1205L17.1187 20.8156L17.0868 21.1525L15.9501 21.2198L15.5337 20.6402L14.3478 20.3993L13.3709 21.5282L11.8334 21.2673L11.722 19.5346L10.6 19.3429L11.05 18.493L10.9213 18.0049L9.44687 18.9905L8.5192 18.8773L8.18838 18.1526L8.3905 17.4055L8.90184 16.4631L10.0791 15.8671L12.3525 15.8663L12.3465 16.5599L13.1636 16.9399L13.0988 15.7549L13.6879 15.1623L14.8764 14.3815L14.9576 13.8321L16.1427 12.5987L17.4029 11.9008L17.2915 11.8092L18.1449 11.0059L18.4575 11.0889L18.6009 11.2685L18.9248 10.9092L19.0043 10.8738L18.6493 10.8237L18.2891 10.7036V10.3581L18.48 10.2018H18.9006L19.0933 10.2864L19.26 10.6233L19.4638 10.5922V10.5628L19.5225 10.5827L20.1134 10.492L20.1971 10.2035L20.534 10.2882V10.6008L20.2213 10.8159H20.2222L20.268 11.1588L21.3382 11.4888C21.3382 11.4888 21.339 11.4931 21.3407 11.5017L21.5869 11.481L21.6033 11.0172L20.7551 10.6311L20.7068 10.4082L21.4107 10.1681L21.4418 9.49438L20.7059 9.04609L20.6575 7.91025L19.6487 8.40605H19.2807L19.3774 7.54143L18.0041 7.21752L17.4357 7.64681V8.95626L16.4139 9.28016L16.0045 10.1336L15.5605 10.2052V9.11346L14.6 8.98044L14.1198 8.66776L13.9263 7.96035L15.6443 6.95494L16.4847 6.69927L16.5694 7.26416L17.0375 7.23998L17.0738 6.9558L17.5636 6.88584L17.5722 6.78651L17.3614 6.69927L17.3131 6.39868L17.9151 6.34772L18.2787 5.9694L18.2986 5.94176L18.3029 5.94349L18.4135 5.82947L19.6789 5.66968L20.2386 6.14474L18.7711 6.92644L20.6385 7.36695L20.8804 6.74246H21.6966L21.9851 6.19829L21.4081 6.05405V5.36563L19.5986 4.56407L18.3496 4.70832L17.6447 5.07714L17.6931 5.97372L16.9563 5.86143L16.8432 5.36563L17.5489 4.72473L16.2679 4.66081L15.9 4.77224L15.7402 5.20411L16.2204 5.28531L16.1245 5.76555L15.3083 5.81392L15.1805 6.13351L13.9963 6.16633C13.9963 6.16633 13.9634 5.49433 13.9159 5.49433C13.8684 5.49433 14.8445 5.47792 14.8445 5.47792L15.5501 4.78865L15.1649 4.59603L14.6527 5.09355L13.8028 5.04518L13.2906 4.34036H12.2014L11.0647 5.18943H12.1064L12.2014 5.49433L11.931 5.74569L13.0841 5.77765L13.2603 6.19397L11.9621 6.1456L11.8991 5.82515L11.0828 5.64895L10.6501 5.40882L9.67835 5.4166C12.8596 3.09915 16.7715 1.72751 20.9996 1.72751C25.8729 1.72751 30.3255 3.54916 33.7226 6.54207L33.4938 6.95149L32.605 7.29958L32.2301 7.70641L32.3165 8.18061L32.7751 8.24452L33.0515 8.93553L33.8427 8.6168L33.9731 9.54102H33.7347L33.0852 9.44514L32.3648 9.56607L31.6678 10.5507L30.671 10.7071L30.5268 11.5605L30.9474 11.6598L30.8256 12.2083L29.8358 12.0096L28.928 12.2083L28.7353 12.7136L28.8925 13.7743L29.4255 14.0239L30.3195 14.0187L30.9232 13.9643L31.1072 13.4841L32.0504 12.2584L32.6715 12.3854L33.283 11.8326L33.397 12.2644L34.9017 13.2793L34.7177 13.5264L34.0396 13.4901L34.3005 13.8598L34.7177 13.9513L35.2066 13.7475L35.1962 13.1584L35.413 13.0496L35.2385 12.8647L34.2349 12.305L33.9705 11.5613H34.8049L35.0718 11.8256L35.7905 12.445L35.8207 13.1938L36.5653 13.9868L36.8425 12.9002L37.3582 12.6186L37.4549 13.5074L37.9585 14.0602L38.963 14.0429C39.1574 14.543 39.3319 15.0518 39.4847 15.5709L39.3802 15.6676ZM11.4542 9.54102L11.9587 9.30089L12.4147 9.40973L12.2575 10.0221L11.7652 10.1785L11.4542 9.54102ZM14.131 10.9826V11.3791H12.9788L12.5469 11.259L12.6548 10.9826L13.2085 10.7537H13.9652V10.9826H14.131ZM14.6613 11.5354V11.9198L14.3729 12.1055L14.0135 12.172C14.0135 12.172 14.0135 11.5959 14.0135 11.5354H14.6613ZM14.3366 11.3791V10.9222L14.733 11.2832L14.3366 11.3791ZM14.5171 12.3033V12.6773L14.2416 12.9537H13.6292L13.725 12.5339L14.0144 12.5089L14.074 12.3646L14.5171 12.3033ZM12.9917 11.5354H13.6283L12.8121 12.6764L12.4752 12.4959L12.5477 12.0157L12.9917 11.5354ZM15.5985 12.172V12.5452H14.9861L14.8185 12.3033V11.9561H14.8669L15.5985 12.172ZM15.0328 11.6589L15.2072 11.4758L15.5018 11.6589L15.266 11.8533L15.0328 11.6589ZM39.6929 16.6402L39.7534 16.5694C39.7784 16.6782 39.8052 16.787 39.8294 16.8976L39.6929 16.6402Z" fill="#787877"/>
</svg>
