<svg width="16" height="16" viewBox="0 0 16 16" fill="none" xmlns="http://www.w3.org/2000/svg">
<path d="M16 8C16 12.4183 12.4183 16 8 16C3.58172 16 0 12.4183 0 8C0 3.58172 3.58172 0 8 0C12.4183 0 16 3.58172 16 8Z" fill="#379A65"/>
<path d="M7.06023 9.734C7.06023 9.35 7.16823 9.002 7.38423 8.69C7.60023 8.366 7.98423 7.952 8.53623 7.448C9.07623 6.932 9.48423 6.488 9.76023 6.116C9.98823 5.78 10.1022 5.378 10.1022 4.91C10.1022 4.298 9.90423 3.794 9.50823 3.398C9.11223 2.99 8.62023 2.786 8.03223 2.786C6.90423 2.786 6.15423 3.41 5.78223 4.658L4.99023 4.352C5.19423 3.608 5.56623 3.02 6.10623 2.588C6.64623 2.156 7.28823 1.94 8.03223 1.94C8.87223 1.94 9.58623 2.222 10.1742 2.786C10.7622 3.338 11.0562 4.028 11.0562 4.856C11.0562 5.408 10.9122 5.906 10.6242 6.35C10.3482 6.782 9.88023 7.304 9.22023 7.916C8.72823 8.384 8.39223 8.744 8.21223 8.996C8.04423 9.236 7.96023 9.512 7.96023 9.824C7.96023 9.992 7.99623 10.22 8.06823 10.508H7.24023C7.12023 10.304 7.06023 10.046 7.06023 9.734ZM7.11423 13.928C6.94623 13.76 6.86223 13.55 6.86223 13.298C6.86223 13.046 6.94623 12.836 7.11423 12.668C7.29423 12.5 7.51023 12.416 7.76223 12.416C8.01423 12.416 8.22423 12.5 8.39223 12.668C8.57223 12.836 8.66223 13.046 8.66223 13.298C8.66223 13.55 8.57223 13.76 8.39223 13.928C8.22423 14.096 8.01423 14.18 7.76223 14.18C7.51023 14.18 7.29423 14.096 7.11423 13.928Z" fill="#F8F8F8"/>
</svg>
