<svg width="24" height="24" viewBox="0 0 24 24" fill="none" xmlns="http://www.w3.org/2000/svg">
<path d="M23.9298 0.799916C23.9288 0.795924 23.9273 0.791933 23.9263 0.787941C23.9094 0.70861 23.8804 0.631773 23.844 0.557431C23.8345 0.538471 23.8251 0.520011 23.8146 0.501051C23.7717 0.425711 23.7218 0.353365 23.6574 0.289001C23.593 0.224638 23.5202 0.174744 23.4449 0.131835C23.4269 0.121358 23.4089 0.112377 23.39 0.102897C23.3136 0.0654764 23.2353 0.035041 23.1535 0.0180771C23.151 0.0175781 23.1495 0.0170792 23.1475 0.0165803C23.0622 -0.000383691 22.9754 -0.00287839 22.8885 0.00260995C22.8696 0.00360783 22.8506 0.00560359 22.8317 0.00809829C22.7439 0.018576 22.6565 0.0370368 22.5732 0.0709647L0.620361 9.05188C0.228693 9.21204 -0.0192803 9.60171 0.00117621 10.0238C0.0216327 10.4464 0.306029 10.8101 0.711667 10.9314L10.1756 13.7709L13.0145 23.2347C13.1363 23.6399 13.5 23.9243 13.9221 23.9447C13.9386 23.9452 13.9545 23.9457 13.971 23.9457C14.3741 23.9457 14.7404 23.7023 14.8945 23.3256L23.8754 1.3722C23.8754 1.3717 23.8754 1.3717 23.8754 1.3712C23.9089 1.28938 23.9268 1.20406 23.9373 1.11774C23.9398 1.09629 23.9423 1.07533 23.9433 1.05388C23.9483 0.969056 23.9463 0.883738 23.9298 0.799916ZM3.9882 9.83023L18.7389 3.79555L10.693 11.842L3.9882 9.83023ZM14.1152 19.9582L12.104 13.253L20.1494 5.20755L14.1152 19.9582Z" fill="#F8F8F8"/>
<path d="M8.68917 15.2571C8.29949 14.8675 7.66784 14.8675 7.27816 15.2571L4.78346 17.7518C4.39379 18.1415 4.39379 18.7732 4.78346 19.1628C4.97855 19.3579 5.23351 19.4552 5.48897 19.4552C5.74442 19.4552 5.99938 19.3579 6.19447 19.1628L8.68917 16.6681C9.07884 16.2785 9.07884 15.6468 8.68917 15.2571Z" fill="#F8F8F8"/>
<path d="M3.20008 15.2571C2.8104 14.8675 2.17875 14.8675 1.78907 15.2571L0.292254 16.7539C-0.097418 17.1436 -0.097418 17.7753 0.292254 18.1649C0.48734 18.36 0.742298 18.4573 0.997755 18.4573C1.25321 18.4573 1.50817 18.36 1.70326 18.1649L3.20008 16.6681C3.58975 16.2785 3.58975 15.6468 3.20008 15.2571Z" fill="#F8F8F8"/>
<path d="M8.68836 20.7451C8.29868 20.3554 7.66703 20.3554 7.27735 20.7451L5.78054 22.2419C5.39086 22.6316 5.39086 23.2632 5.78054 23.6529C5.97562 23.848 6.23058 23.9453 6.48604 23.9453C6.74149 23.9453 6.99645 23.848 7.19154 23.6529L8.68836 22.1561C9.07803 21.7664 9.07803 21.1347 8.68836 20.7451Z" fill="#F8F8F8"/>
</svg>
