<svg width="84" height="84" viewBox="0 0 84 84" fill="none" xmlns="http://www.w3.org/2000/svg">
<circle cx="42" cy="42" r="42" fill="#41AC5B"/>
<path d="M73.7039 53.9104C72.8779 53.9104 72.3272 53.3597 72.3272 52.5337V49.7804C72.3272 47.5777 70.3999 45.6503 68.1972 45.6503H59.9371C59.1111 45.6503 58.5604 45.0997 58.5604 44.2737C58.5604 43.4476 59.1111 42.897 59.9371 42.897H68.1972C72.0519 42.897 75.0806 45.9257 75.0806 49.7804V52.5337C75.0806 53.3597 74.5299 53.9104 73.7039 53.9104Z" fill="#F9F9F7"/>
<path d="M10.3767 53.9104C9.55067 53.9104 9 53.3597 9 52.5337V49.7804C9 45.9257 12.0287 42.897 15.8834 42.897H24.1435C24.9695 42.897 25.5201 43.4476 25.5201 44.2737C25.5201 45.0997 24.9695 45.6503 24.1435 45.6503H15.8834C13.6807 45.6503 11.7534 47.5777 11.7534 49.7804V52.5337C11.7534 53.3597 11.2027 53.9104 10.3767 53.9104Z" fill="#F9F9F7"/>
<circle cx="42.0403" cy="32.8253" r="7.82533" fill="#F9F9F7"/>
<circle cx="63.7773" cy="34.5643" r="5.21689" fill="#F9F9F7"/>
<circle cx="19.4338" cy="34.5643" r="5.21689" fill="#F9F9F7"/>
<path fill-rule="evenodd" clip-rule="evenodd" d="M28.0413 59.4014C27.3459 59.3073 26.8969 58.7859 26.8969 58.04V52.5333C26.8969 48.6786 29.9255 45.6499 33.7802 45.6499H50.3004C54.1551 45.6499 57.1838 48.6786 57.1838 52.5333V58.04C57.1838 58.7863 56.7343 59.3078 56.0384 59.4015L56.0403 59.4167H28.0403L28.0413 59.4014Z" fill="#F9F9F7"/>
</svg>
