<svg width="42" height="30" viewBox="0 0 42 30" fill="none" xmlns="http://www.w3.org/2000/svg">
<path d="M41.1347 4.69424C40.6505 2.85872 39.2319 1.41187 37.433 0.9176C34.1463 0 20.9996 0 20.9996 0C20.9996 0 7.85318 0 4.56649 0.882622C2.80219 1.37656 1.34902 2.85904 0.864849 4.69424C0 8.0469 0 15 0 15C0 15 0 21.9881 0.864849 25.3058C1.34934 27.141 2.76758 28.5881 4.56681 29.0824C7.88778 30 20.9999 30 20.9999 30C20.9999 30 34.1463 30 37.433 29.1174C39.2322 28.6234 40.6505 27.1763 41.135 25.3411C41.9998 21.9881 41.9998 15.0353 41.9998 15.0353C41.9998 15.0353 42.0344 8.0469 41.1347 4.69424Z" fill="#FF0000"/>
<path d="M16.8135 21.4235L27.7457 15L16.8135 8.57642V21.4235Z" fill="white"/>
</svg>
