<svg data-v-423bf9ae="" xmlns="http://www.w3.org/2000/svg" viewBox="0 0 335.17537333072016 60" class="font"><!----><!----><!----><g data-v-423bf9ae="" id="d186dd44-83be-444f-a38e-4d32cd78a306" fill="white" transform="matrix(4.294917598649483,0,0,4.294917598649483,-3.307088979890608,-5.540443061582572)"><path d="M4.10 1.29L4.10 1.29Q4.90 1.29 5.55 1.65L5.55 1.65L5.55 1.65Q6.20 2.02 6.58 2.65L6.58 2.65L6.58 2.65Q6.96 3.28 6.96 4.05L6.96 4.05L6.96 4.05Q6.96 4.70 6.48 5.40L6.48 5.40L6.48 5.40Q5.99 6.09 5.29 6.38L5.29 6.38L5.29 6.38Q6.31 6.65 6.87 7.45L6.87 7.45L6.87 7.45Q7.43 8.26 7.43 9.25L7.43 9.25L7.43 9.25Q7.43 10.16 7 10.89L7 10.89L7 10.89Q6.57 11.62 5.80 12.04L5.80 12.04L5.80 12.04Q5.03 12.46 4.07 12.46L4.07 12.46L4.07 12.46Q3.15 12.46 2.39 12.04L2.39 12.04L2.39 12.04Q1.64 11.62 1.20 10.88L1.20 10.88L1.20 10.88Q0.77 10.14 0.77 9.24L0.77 9.24L0.77 9.24Q0.77 9.04 0.89 8.91L0.89 8.91L0.89 8.91Q1.01 8.78 1.20 8.78L1.20 8.78L1.20 8.78Q1.40 8.78 1.51 8.91L1.51 8.91L1.51 8.91Q1.62 9.04 1.62 9.24L1.62 9.24L1.62 9.24Q1.62 9.91 1.95 10.45L1.95 10.45L1.95 10.45Q2.27 10.99 2.83 11.30L2.83 11.30L2.83 11.30Q3.40 11.62 4.07 11.62L4.07 11.62L4.07 11.62Q5.24 11.62 5.91 10.96L5.91 10.96L5.91 10.96Q6.58 10.29 6.58 9.25L6.58 9.25L6.58 9.25Q6.58 8.53 6.26 7.98L6.26 7.98L6.26 7.98Q5.94 7.43 5.38 7.14L5.38 7.14L5.38 7.14Q4.83 6.85 4.14 6.85L4.14 6.85L4.14 6.85Q3.96 6.85 3.84 6.73L3.84 6.73L3.84 6.73Q3.72 6.61 3.72 6.43L3.72 6.43L3.72 6.43Q3.72 6.24 3.84 6.12L3.84 6.12L3.84 6.12Q3.96 6.01 4.14 6.01L4.14 6.01L4.14 6.01Q4.69 6.01 5.14 5.74L5.14 5.74L5.14 5.74Q5.59 5.47 5.84 5.02L5.84 5.02L5.84 5.02Q6.10 4.56 6.10 4.05L6.10 4.05L6.10 4.05Q6.10 3.19 5.57 2.65L5.57 2.65L5.57 2.65Q5.03 2.11 4.10 2.11L4.10 2.11L4.10 2.11Q3.16 2.11 2.58 2.63L2.58 2.63L2.58 2.63Q1.99 3.15 1.99 3.95L1.99 3.95L1.99 3.95Q1.99 4.13 1.86 4.25L1.86 4.25L1.86 4.25Q1.74 4.37 1.55 4.37L1.55 4.37L1.55 4.37Q1.36 4.37 1.25 4.25L1.25 4.25L1.25 4.25Q1.13 4.13 1.13 3.95L1.13 3.95L1.13 3.95Q1.13 3.19 1.51 2.59L1.51 2.59L1.51 2.59Q1.89 1.99 2.57 1.64L2.57 1.64L2.57 1.64Q3.25 1.29 4.10 1.29L4.10 1.29ZM12.57 4.59L12.57 4.59Q13.64 4.59 13.64 5.05L13.64 5.05L13.64 5.05Q13.64 5.12 13.62 5.17L13.62 5.17L13.62 5.17Q13.58 5.32 13.49 5.38L13.49 5.38L13.49 5.38Q13.40 5.45 13.24 5.45L13.24 5.45L13.24 5.45Q13.12 5.45 12.91 5.42L12.91 5.42L12.91 5.42Q12.71 5.39 12.57 5.39L12.57 5.39L12.57 5.39Q11.87 5.39 11.33 5.68L11.33 5.68L11.33 5.68Q10.78 5.98 10.47 6.50L10.47 6.50L10.47 6.50Q10.16 7.01 10.16 7.66L10.16 7.66L10.16 11.91L10.16 11.91Q10.16 12.10 10.05 12.21L10.05 12.21L10.05 12.21Q9.94 12.33 9.74 12.33L9.74 12.33L9.74 12.33Q9.56 12.33 9.44 12.21L9.44 12.21L9.44 12.21Q9.32 12.10 9.32 11.91L9.32 11.91L9.32 5.10L9.32 5.10Q9.32 4.90 9.44 4.79L9.44 4.79L9.44 4.79Q9.56 4.68 9.74 4.68L9.74 4.68L9.74 4.68Q9.94 4.68 10.05 4.79L10.05 4.79L10.05 4.79Q10.16 4.90 10.16 5.10L10.16 5.10L10.16 5.96L10.16 5.96Q10.57 5.32 11.20 4.96L11.20 4.96L11.20 4.96Q11.83 4.59 12.57 4.59L12.57 4.59ZM22.44 1.40L22.44 1.40Q22.64 1.40 22.75 1.51L22.75 1.51L22.75 1.51Q22.86 1.62 22.86 1.82L22.86 1.82L22.86 8.55L22.86 8.58L22.86 8.58Q22.85 9.66 22.33 10.54L22.33 10.54L22.33 10.54Q21.81 11.42 20.92 11.92L20.92 11.92L20.92 11.92Q20.03 12.42 18.96 12.42L18.96 12.42L18.96 12.42Q17.85 12.42 16.95 11.91L16.95 11.91L16.95 11.91Q16.06 11.40 15.55 10.50L15.55 10.50L15.55 10.50Q15.04 9.60 15.04 8.50L15.04 8.50L15.04 8.50Q15.04 7.41 15.55 6.51L15.55 6.51L15.55 6.51Q16.06 5.61 16.95 5.10L16.95 5.10L16.95 5.10Q17.85 4.59 18.96 4.59L18.96 4.59L18.96 4.59Q19.95 4.59 20.76 5.02L20.76 5.02L20.76 5.02Q21.56 5.45 22.02 6.19L22.02 6.19L22.02 1.82L22.02 1.82Q22.02 1.62 22.14 1.51L22.14 1.51L22.14 1.51Q22.26 1.40 22.44 1.40L22.44 1.40ZM18.96 11.63L18.96 11.63Q19.82 11.63 20.52 11.22L20.52 11.22L20.52 11.22Q21.22 10.81 21.62 10.09L21.62 10.09L21.62 10.09Q22.02 9.38 22.02 8.50L22.02 8.50L22.02 8.50Q22.02 7.62 21.62 6.90L21.62 6.90L21.62 6.90Q21.22 6.19 20.52 5.78L20.52 5.78L20.52 5.78Q19.82 5.38 18.96 5.38L18.96 5.38L18.96 5.38Q18.09 5.38 17.39 5.78L17.39 5.78L17.39 5.78Q16.69 6.19 16.28 6.90L16.28 6.90L16.28 6.90Q15.88 7.62 15.88 8.50L15.88 8.50L15.88 8.50Q15.88 9.38 16.28 10.09L16.28 10.09L16.28 10.09Q16.69 10.81 17.39 11.22L17.39 11.22L17.39 11.22Q18.09 11.63 18.96 11.63L18.96 11.63ZM36.47 1.40L36.47 1.40Q36.67 1.40 36.78 1.51L36.78 1.51L36.78 1.51Q36.89 1.62 36.89 1.82L36.89 1.82L36.89 8.55L36.89 8.58L36.89 8.58Q36.88 9.66 36.36 10.54L36.36 10.54L36.36 10.54Q35.84 11.42 34.95 11.92L34.95 11.92L34.95 11.92Q34.06 12.42 32.98 12.42L32.98 12.42L32.98 12.42Q31.88 12.42 30.98 11.91L30.98 11.91L30.98 11.91Q30.09 11.40 29.57 10.50L29.57 10.50L29.57 10.50Q29.06 9.60 29.06 8.50L29.06 8.50L29.06 8.50Q29.06 7.41 29.57 6.51L29.57 6.51L29.57 6.51Q30.09 5.61 30.98 5.10L30.98 5.10L30.98 5.10Q31.88 4.59 32.98 4.59L32.98 4.59L32.98 4.59Q33.98 4.59 34.78 5.02L34.78 5.02L34.78 5.02Q35.59 5.45 36.05 6.19L36.05 6.19L36.05 1.82L36.05 1.82Q36.05 1.62 36.17 1.51L36.17 1.51L36.17 1.51Q36.29 1.40 36.47 1.40L36.47 1.40ZM32.98 11.63L32.98 11.63Q33.85 11.63 34.55 11.22L34.55 11.22L34.55 11.22Q35.25 10.81 35.65 10.09L35.65 10.09L35.65 10.09Q36.05 9.38 36.05 8.50L36.05 8.50L36.05 8.50Q36.05 7.62 35.65 6.90L35.65 6.90L35.65 6.90Q35.25 6.19 34.55 5.78L34.55 5.78L34.55 5.78Q33.85 5.38 32.98 5.38L32.98 5.38L32.98 5.38Q32.12 5.38 31.42 5.78L31.42 5.78L31.42 5.78Q30.72 6.19 30.31 6.90L30.31 6.90L30.31 6.90Q29.90 7.62 29.90 8.50L29.90 8.50L29.90 8.50Q29.90 9.38 30.31 10.09L30.31 10.09L30.31 10.09Q30.72 10.81 31.42 11.22L31.42 11.22L31.42 11.22Q32.12 11.63 32.98 11.63L32.98 11.63ZM42.59 4.61L42.59 4.61Q43.61 4.61 44.41 5.09L44.41 5.09L44.41 5.09Q45.22 5.57 45.67 6.43L45.67 6.43L45.67 6.43Q46.12 7.28 46.12 8.37L46.12 8.37L46.12 8.37Q46.12 8.55 46.00 8.66L46.00 8.66L46.00 8.66Q45.89 8.76 45.71 8.76L45.71 8.76L39.84 8.76L39.84 8.76Q39.89 9.59 40.28 10.24L40.28 10.24L40.28 10.24Q40.67 10.89 41.33 11.26L41.33 11.26L41.33 11.26Q41.99 11.62 42.80 11.62L42.80 11.62L42.80 11.62Q43.34 11.62 43.90 11.43L43.90 11.43L43.90 11.43Q44.45 11.24 44.77 10.93L44.77 10.93L44.77 10.93Q44.91 10.82 45.07 10.82L45.07 10.82L45.07 10.82Q45.22 10.82 45.32 10.91L45.32 10.91L45.32 10.91Q45.47 11.03 45.47 11.20L45.47 11.20L45.47 11.20Q45.47 11.34 45.35 11.47L45.35 11.47L45.35 11.47Q44.90 11.87 44.18 12.14L44.18 12.14L44.18 12.14Q43.46 12.40 42.80 12.40L42.80 12.40L42.80 12.40Q41.69 12.40 40.83 11.91L40.83 11.91L40.83 11.91Q39.97 11.41 39.48 10.52L39.48 10.52L39.48 10.52Q38.99 9.63 38.99 8.51L38.99 8.51L38.99 8.51Q38.99 7.38 39.45 6.49L39.45 6.49L39.45 6.49Q39.90 5.60 40.72 5.10L40.72 5.10L40.72 5.10Q41.54 4.61 42.59 4.61L42.59 4.61ZM42.59 5.39L42.59 5.39Q41.50 5.39 40.75 6.12L40.75 6.12L40.75 6.12Q40.00 6.85 39.86 8.04L39.86 8.04L45.30 8.04L45.30 8.04Q45.21 6.85 44.46 6.12L44.46 6.12L44.46 6.12Q43.72 5.39 42.59 5.39L42.59 5.39ZM51.44 4.59L51.44 4.59Q52.57 4.59 53.46 5.10L53.46 5.10L53.46 5.10Q54.35 5.60 54.84 6.49L54.84 6.49L54.84 6.49Q55.34 7.38 55.34 8.51L55.34 8.51L55.34 11.26L55.34 11.26Q55.34 12.38 54.84 13.29L54.84 13.29L54.84 13.29Q54.33 14.21 53.45 14.73L53.45 14.73L53.45 14.73Q52.57 15.26 51.49 15.26L51.49 15.26L51.49 15.26Q50.39 15.26 49.55 14.85L49.55 14.85L49.55 14.85Q48.72 14.43 48.16 13.72L48.16 13.72L48.16 13.72Q48.05 13.58 48.05 13.44L48.05 13.44L48.05 13.44Q48.05 13.27 48.19 13.17L48.19 13.17L48.19 13.17Q48.30 13.09 48.44 13.09L48.44 13.09L48.44 13.09Q48.66 13.09 48.80 13.27L48.80 13.27L48.80 13.27Q49.27 13.83 49.95 14.15L49.95 14.15L49.95 14.15Q50.62 14.48 51.49 14.48L51.49 14.48L51.49 14.48Q52.35 14.48 53.03 14.06L53.03 14.06L53.03 14.06Q53.72 13.64 54.11 12.90L54.11 12.90L54.11 12.90Q54.50 12.17 54.50 11.26L54.50 11.26L54.50 10.64L54.50 10.64Q54.10 11.47 53.29 11.94L53.29 11.94L53.29 11.94Q52.49 12.42 51.44 12.42L51.44 12.42L51.44 12.42Q50.30 12.42 49.41 11.92L49.41 11.92L49.41 11.92Q48.52 11.42 48.02 10.54L48.02 10.54L48.02 10.54Q47.52 9.65 47.52 8.51L47.52 8.51L47.52 8.51Q47.52 7.39 48.03 6.50L48.03 6.50L48.03 6.50Q48.55 5.60 49.45 5.10L49.45 5.10L49.45 5.10Q50.34 4.59 51.44 4.59L51.44 4.59ZM51.44 11.63L51.44 11.63Q52.32 11.63 53.02 11.23L53.02 11.23L53.02 11.23Q53.72 10.84 54.11 10.13L54.11 10.13L54.11 10.13Q54.50 9.42 54.50 8.51L54.50 8.51L54.50 8.51Q54.50 7.60 54.11 6.89L54.11 6.89L54.11 6.89Q53.72 6.17 53.02 5.77L53.02 5.77L53.02 5.77Q52.32 5.38 51.44 5.38L51.44 5.38L51.44 5.38Q50.54 5.38 49.84 5.77L49.84 5.77L49.84 5.77Q49.14 6.17 48.75 6.89L48.75 6.89L48.75 6.89Q48.36 7.60 48.36 8.51L48.36 8.51L48.36 8.51Q48.36 9.42 48.75 10.13L48.75 10.13L48.75 10.13Q49.14 10.84 49.84 11.23L49.84 11.23L49.84 11.23Q50.54 11.63 51.44 11.63L51.44 11.63ZM60.69 4.59L60.69 4.59Q61.75 4.59 61.75 5.05L61.75 5.05L61.75 5.05Q61.75 5.12 61.74 5.17L61.74 5.17L61.74 5.17Q61.70 5.32 61.61 5.38L61.61 5.38L61.61 5.38Q61.52 5.45 61.36 5.45L61.36 5.45L61.36 5.45Q61.24 5.45 61.03 5.42L61.03 5.42L61.03 5.42Q60.83 5.39 60.69 5.39L60.69 5.39L60.69 5.39Q59.99 5.39 59.44 5.68L59.44 5.68L59.44 5.68Q58.90 5.98 58.59 6.50L58.59 6.50L58.59 6.50Q58.28 7.01 58.28 7.66L58.28 7.66L58.28 11.91L58.28 11.91Q58.28 12.10 58.17 12.21L58.17 12.21L58.17 12.21Q58.06 12.33 57.86 12.33L57.86 12.33L57.86 12.33Q57.68 12.33 57.56 12.21L57.56 12.21L57.56 12.21Q57.44 12.10 57.44 11.91L57.44 11.91L57.44 5.10L57.44 5.10Q57.44 4.90 57.56 4.79L57.56 4.79L57.56 4.79Q57.68 4.68 57.86 4.68L57.86 4.68L57.86 4.68Q58.06 4.68 58.17 4.79L58.17 4.79L58.17 4.79Q58.28 4.90 58.28 5.10L58.28 5.10L58.28 5.96L58.28 5.96Q58.69 5.32 59.32 4.96L59.32 4.96L59.32 4.96Q59.95 4.59 60.69 4.59L60.69 4.59ZM66.75 4.61L66.75 4.61Q67.77 4.61 68.58 5.09L68.58 5.09L68.58 5.09Q69.38 5.57 69.83 6.43L69.83 6.43L69.83 6.43Q70.28 7.28 70.28 8.37L70.28 8.37L70.28 8.37Q70.28 8.55 70.17 8.66L70.17 8.66L70.17 8.66Q70.06 8.76 69.87 8.76L69.87 8.76L64.01 8.76L64.01 8.76Q64.05 9.59 64.44 10.24L64.44 10.24L64.44 10.24Q64.83 10.89 65.49 11.26L65.49 11.26L65.49 11.26Q66.15 11.62 66.96 11.62L66.96 11.62L66.96 11.62Q67.51 11.62 68.06 11.43L68.06 11.43L68.06 11.43Q68.61 11.24 68.94 10.93L68.94 10.93L68.94 10.93Q69.08 10.82 69.23 10.82L69.23 10.82L69.23 10.82Q69.38 10.82 69.48 10.91L69.48 10.91L69.48 10.91Q69.64 11.03 69.64 11.20L69.64 11.20L69.64 11.20Q69.64 11.34 69.51 11.47L69.51 11.47L69.51 11.47Q69.06 11.87 68.34 12.14L68.34 12.14L68.34 12.14Q67.62 12.40 66.96 12.40L66.96 12.40L66.96 12.40Q65.86 12.40 65.00 11.91L65.00 11.91L65.00 11.91Q64.13 11.41 63.64 10.52L63.64 10.52L63.64 10.52Q63.15 9.63 63.15 8.51L63.15 8.51L63.15 8.51Q63.15 7.38 63.61 6.49L63.61 6.49L63.61 6.49Q64.06 5.60 64.88 5.10L64.88 5.10L64.88 5.10Q65.70 4.61 66.75 4.61L66.75 4.61ZM66.75 5.39L66.75 5.39Q65.66 5.39 64.91 6.12L64.91 6.12L64.91 6.12Q64.16 6.85 64.02 8.04L64.02 8.04L69.47 8.04L69.47 8.04Q69.37 6.85 68.63 6.12L68.63 6.12L68.63 6.12Q67.89 5.39 66.75 5.39L66.75 5.39ZM75.28 4.61L75.28 4.61Q76.30 4.61 77.11 5.09L77.11 5.09L77.11 5.09Q77.91 5.57 78.36 6.43L78.36 6.43L78.36 6.43Q78.81 7.28 78.81 8.37L78.81 8.37L78.81 8.37Q78.81 8.55 78.69 8.66L78.69 8.66L78.69 8.66Q78.58 8.76 78.40 8.76L78.40 8.76L72.53 8.76L72.53 8.76Q72.58 9.59 72.97 10.24L72.97 10.24L72.97 10.24Q73.36 10.89 74.02 11.26L74.02 11.26L74.02 11.26Q74.68 11.62 75.49 11.62L75.49 11.62L75.49 11.62Q76.03 11.62 76.59 11.43L76.59 11.43L76.59 11.43Q77.14 11.24 77.46 10.93L77.46 10.93L77.46 10.93Q77.60 10.82 77.76 10.82L77.76 10.82L77.76 10.82Q77.91 10.82 78.01 10.91L78.01 10.91L78.01 10.91Q78.16 11.03 78.16 11.20L78.16 11.20L78.16 11.20Q78.16 11.34 78.04 11.47L78.04 11.47L78.04 11.47Q77.59 11.87 76.87 12.14L76.87 12.14L76.87 12.14Q76.15 12.40 75.49 12.40L75.49 12.40L75.49 12.40Q74.38 12.40 73.52 11.91L73.52 11.91L73.52 11.91Q72.66 11.41 72.17 10.52L72.17 10.52L72.17 10.52Q71.68 9.63 71.68 8.51L71.68 8.51L71.68 8.51Q71.68 7.38 72.14 6.49L72.14 6.49L72.14 6.49Q72.59 5.60 73.41 5.10L73.41 5.10L73.41 5.10Q74.23 4.61 75.28 4.61L75.28 4.61ZM75.28 5.39L75.28 5.39Q74.19 5.39 73.44 6.12L73.44 6.12L73.44 6.12Q72.69 6.85 72.55 8.04L72.55 8.04L77.99 8.04L77.99 8.04Q77.90 6.85 77.15 6.12L77.15 6.12L77.15 6.12Q76.41 5.39 75.28 5.39L75.28 5.39Z"></path></g><!----><!----></svg>